<?xml version="1.0" encoding="utf-8"?>
<!-- Generator: Adobe Illustrator 16.0.0, SVG Export Plug-In . SVG Version: 6.00 Build 0)  -->
<!DOCTYPE svg PUBLIC "-//W3C//DTD SVG 1.1//EN" "http://www.w3.org/Graphics/SVG/1.1/DTD/svg11.dtd">
<svg version="1.1" id="base" xmlns="http://www.w3.org/2000/svg" xmlns:xlink="http://www.w3.org/1999/xlink" x="0px" y="0px"
	 width="532.641px" height="532.641px" viewBox="0 0 532.641 532.641" enable-background="new 0 0 532.641 532.641"
	 xml:space="preserve">
<g>
	<path fill="#5F52A3" d="M266.636,195.796c-23.035,0-41.65,18.301-41.81,41.18c-0.158,22.877,17.985,41.65,40.863,42.125
		c23.036,0.474,42.283-18.459,42.439-41.652C308.13,214.728,289.514,195.953,266.636,195.796z"/>
	<path fill="#5F52A3" d="M266.32,0C119.235,0,0,119.235,0,266.32c0,147.084,119.235,266.32,266.32,266.32
		c147.084,0,266.32-119.235,266.32-266.32C532.641,119.235,413.404,0,266.32,0z M350.729,274.366
		c-15.146,32.817-36.13,61.374-59.006,88.983c-4.894,5.838-9.783,11.676-15.146,17.195c-6.153,6.313-14.357,6.784-20.195,0.314
		c-30.134-33.133-58.375-67.687-75.73-109.651c-24.139-58.376,20.826-124.481,85.828-124.167
		C330.691,146.728,378.181,213.624,350.729,274.366z"/>
</g>
</svg>
