<?xml version="1.0" encoding="utf-8"?>
<!-- Generator: Adobe Illustrator 16.0.0, SVG Export Plug-In . SVG Version: 6.00 Build 0)  -->
<!DOCTYPE svg PUBLIC "-//W3C//DTD SVG 1.1//EN" "http://www.w3.org/Graphics/SVG/1.1/DTD/svg11.dtd">
<svg version="1.1" id="Layer_1" xmlns="http://www.w3.org/2000/svg" xmlns:xlink="http://www.w3.org/1999/xlink" x="0px" y="0px"
	 width="72px" height="72px" viewBox="0 0 72 72" enable-background="new 0 0 72 72" xml:space="preserve">
<g>
	<path d="M36,0C16.118,0,0,16.118,0,36s16.118,36,36,36c19.883,0,36-16.118,36-36S55.883,0,36,0z M45.835,53.533
		c-0.001,1.573-0.536,2.112-2.112,2.112c-8.44,0.002-16.88,0.003-25.321,0c-1.528,0-2.076-0.549-2.076-2.08
		c-0.003-8.44-0.003-16.88,0-25.321c0-1.575,0.539-2.108,2.116-2.108c4.22-0.001,8.44,0,12.66,0c4.197,0,8.394-0.001,12.59,0
		c1.624,0,2.144,0.521,2.144,2.146C45.836,36.7,45.836,45.116,45.835,53.533z M55.662,31.059c0,4.174,0.001,8.348,0,12.522
		c-0.001,1.759-0.488,2.238-2.271,2.238c-0.797,0-1.595,0.006-2.392-0.001c-1.338-0.012-1.915-0.593-1.916-1.944
		c-0.003-6.542-0.001-13.085-0.002-19.628c0-1.242-0.117-1.358-1.371-1.358c-6.473,0-12.945,0-19.417,0
		c-1.626,0-2.141-0.515-2.143-2.142c-0.001-0.891-0.015-1.783,0.004-2.673c0.024-1.103,0.583-1.674,1.684-1.758
		c0.14-0.011,0.281-0.006,0.422-0.006c8.442,0,16.885-0.002,25.327,0.006c0.37,0,0.768,0.02,1.104,0.155
		c0.825,0.329,0.972,1.062,0.971,1.855C55.66,22.57,55.662,26.814,55.662,31.059z"/>
	<path d="M38.151,32.725c-4.71-0.004-9.421-0.004-14.131,0c-0.908,0.001-1.115,0.21-1.115,1.113c-0.002,4.687-0.002,9.374,0,14.061
		c0,0.976,0.201,1.167,1.207,1.168c2.32,0.002,4.64,0,6.96,0c2.344,0,4.687,0.002,7.03-0.001c0.948-0.001,1.145-0.195,1.145-1.155
		c0.004-4.687,0.004-9.374,0-14.061C39.246,32.918,39.061,32.726,38.151,32.725z"/>
</g>
</svg>
