<?xml version="1.0" encoding="utf-8"?>
<!-- Generator: Adobe Illustrator 16.0.0, SVG Export Plug-In . SVG Version: 6.00 Build 0)  -->
<!DOCTYPE svg PUBLIC "-//W3C//DTD SVG 1.1//EN" "http://www.w3.org/Graphics/SVG/1.1/DTD/svg11.dtd">
<svg version="1.1" id="Layer_1" xmlns="http://www.w3.org/2000/svg" xmlns:xlink="http://www.w3.org/1999/xlink" x="0px" y="0px"
	 width="66.365px" height="100px" viewBox="0 0 66.365 100" enable-background="new 0 0 66.365 100" xml:space="preserve">
<g>
	<path fill="#FFFFFF" d="M37.875,83.413l20.631-37.478c2.927-4.626,4.628-10.105,4.628-15.985C63.134,13.41,49.725,0,33.183,0
		C16.642,0,3.231,13.41,3.231,29.951c0,5.885,1.704,11.369,4.636,15.998l20.624,37.464C12.388,83.986,0,87.461,0,91.664
		C0,96.268,14.856,100,33.183,100s33.183-3.732,33.183-8.336C66.365,87.461,53.978,83.986,37.875,83.413z M17.898,29.951
		c0-8.441,6.843-15.284,15.284-15.284c8.44,0,15.283,6.843,15.283,15.284c0,8.441-6.843,15.284-15.283,15.284
		C24.741,45.234,17.898,38.392,17.898,29.951z M33.183,94.229c-9.161,0-16.587-1.507-16.587-3.365c0-1.692,6.152-3.092,14.165-3.33
		l2.423,4.401l2.423-4.401c8.012,0.238,14.163,1.638,14.163,3.33C49.77,92.722,42.344,94.229,33.183,94.229z"/>
</g>
</svg>
