<?xml version="1.0" encoding="utf-8"?>
<!-- Generator: Adobe Illustrator 16.0.0, SVG Export Plug-In . SVG Version: 6.00 Build 0)  -->
<!DOCTYPE svg PUBLIC "-//W3C//DTD SVG 1.1//EN" "http://www.w3.org/Graphics/SVG/1.1/DTD/svg11.dtd">
<svg version="1.1" id="Layer_1" xmlns="http://www.w3.org/2000/svg" xmlns:xlink="http://www.w3.org/1999/xlink" x="0px" y="0px"
	 width="532.641px" height="532.641px" viewBox="0 0 532.641 532.641" enable-background="new 0 0 532.641 532.641"
	 xml:space="preserve">
<path fill="#FFFFFF" d="M266.32,0C119.235,0,0,119.235,0,266.32c0,147.084,119.235,266.32,266.32,266.32
	c147.084,0,266.32-119.236,266.32-266.32C532.641,119.235,413.404,0,266.32,0z M163.137,189.013c1.262-2.84,4.733-1.42,7.258-1.578
	c31.87,0.158,63.898,0.158,95.926,0.158c32.343,0,64.528,0,96.872,0c2.209,0,5.364-1.104,6.311,1.578
	c0.947,2.523-1.893,3.943-3.471,5.521c-31.239,30.766-62.636,61.374-93.717,92.297c-4.733,4.575-7.573,4.418-12.148-0.158
	c-30.923-30.765-62.163-61.215-93.086-91.822C165.345,193.271,161.874,192.009,163.137,189.013z M149.726,330.218
	c-2.367-0.944-1.578-3.629-1.578-5.68c0-19.879,0-39.759,0-59.796c0-19.405,0-38.812,0-58.218c0-2.209-1.104-5.207,1.893-6.153
	c2.367-0.631,3.629,1.735,5.049,3.155c18.933,18.617,37.708,37.234,56.798,55.693c2.998,2.84,2.998,4.418,0.158,7.416
	c-19.249,20.037-38.181,40.392-57.429,60.587C153.197,328.641,152.093,331.165,149.726,330.218z M370.923,343.629
	c-0.944,2.366-3.628,1.577-5.68,1.577c-33.132-0.313-66.58-0.313-99.87-0.313c-32.028,0-64.056,0-96.241,0
	c-2.682,0-6.469,1.42-7.889-1.735c-1.104-2.682,2.367-4.418,3.944-6.153c18.775-19.879,37.55-39.759,56.167-59.638
	c3.155-3.471,5.049-3.944,8.52-0.315c10.098,10.413,20.668,20.194,30.766,30.607c4.103,4.26,6.942,4.103,11.045,0
	c10.098-10.255,20.668-20.194,30.766-30.45c2.84-2.997,4.575-2.84,7.415,0.158c19.563,20.668,39.128,41.021,58.691,61.688
	C369.819,340.315,371.87,341.735,370.923,343.629z M382.914,330.218c-3.155,1.422-4.418-2.051-5.995-3.784
	c-18.773-19.563-37.393-39.13-56.167-58.534c-3.153-3.155-3.942-4.891-0.157-8.52c19.092-18.302,37.864-37.076,56.955-55.693
	c1.578-1.42,2.685-4.576,5.682-2.998c2.209,1.104,1.263,3.787,1.263,5.838c-0.158,19.406-0.158,38.813-0.158,58.218
	c0,19.406,0,38.813,0,58.219C384.334,325.484,385.595,328.798,382.914,330.218z"/>
</svg>
