<?xml version="1.0" encoding="utf-8"?>
<!-- Generator: Adobe Illustrator 16.0.0, SVG Export Plug-In . SVG Version: 6.00 Build 0)  -->
<!DOCTYPE svg PUBLIC "-//W3C//DTD SVG 1.1//EN" "http://www.w3.org/Graphics/SVG/1.1/DTD/svg11.dtd">
<svg version="1.1" id="Layer_1" xmlns="http://www.w3.org/2000/svg" xmlns:xlink="http://www.w3.org/1999/xlink" x="0px" y="0px"
	 width="72px" height="52.59px" viewBox="0 0 72 52.59" enable-background="new 0 0 72 52.59" xml:space="preserve">
<g>
	<path d="M0,0l36.256,37.985V2.306h6.021V52.59L6.021,14.605v36H0V0z"/>
	<path d="M43.943,2.306h5.893c9.097,0,17.68,2.37,17.68,13.26c0,3.523-1.921,7.623-5.188,9.16v0.128
		C68.028,25.879,72,31.451,72,37.089c0,9.672-8.263,13.516-16.783,13.516H43.943V2.306z M49.965,23.701h1.537
		c5.701,0,10.377-1.153,10.377-8.071c0-6.79-4.611-7.943-10.249-7.943h-1.665V23.701z M49.965,45.224h4.611
		c5.573,0,11.402-1.665,11.402-8.52c0-6.79-6.918-8.199-12.299-8.199h-3.715V45.224z"/>
</g>
</svg>
