<?xml version="1.0" encoding="utf-8"?>
<!-- Generator: Adobe Illustrator 16.0.0, SVG Export Plug-In . SVG Version: 6.00 Build 0)  -->
<!DOCTYPE svg PUBLIC "-//W3C//DTD SVG 1.1//EN" "http://www.w3.org/Graphics/SVG/1.1/DTD/svg11.dtd">
<svg version="1.1" id="Layer_1" xmlns="http://www.w3.org/2000/svg" xmlns:xlink="http://www.w3.org/1999/xlink" x="0px" y="0px"
	 width="532.641px" height="532.641px" viewBox="0 0 532.641 532.641" enable-background="new 0 0 532.641 532.641"
	 xml:space="preserve">
<path fill="#FFFFFF" d="M266.32,0C119.235,0,0,119.235,0,266.32c0,147.084,119.235,266.32,266.32,266.32
	c147.084,0,266.32-119.236,266.32-266.32C532.641,119.235,413.404,0,266.32,0z M363.035,346.469
	c-10.256,15.464-25.401,21.144-44.177,21.457c-11.202-0.313-23.035-2.683-33.921-8.047c-47.806-23.979-85.986-57.9-109.81-106.653
	c-3.944-8.047-7.1-16.409-9.151-25.086c-5.364-23.193,3.156-45.438,22.404-58.691c10.729-7.416,18.775-6.152,26.033,4.575
	c7.889,11.518,16.25,22.562,22.563,35.026c4.891,9.623,6.468,18.301-2.209,27.926c-10.886,11.99-10.255,25.4,0,37.708
	c6.311,7.729,12.938,15.305,19.879,22.246c11.517,11.676,23.35,13.253,38.022,6.151c1.896-0.946,3.944-1.733,5.522-2.998
	c12.464-10.412,24.297-8.52,36.287,0.789c8.678,6.784,18.46,11.991,26.349,19.88C369.977,329.745,370.292,335.74,363.035,346.469z"
	/>
</svg>
