<?xml version="1.0" encoding="utf-8"?>
<!-- Generator: Adobe Illustrator 16.0.0, SVG Export Plug-In . SVG Version: 6.00 Build 0)  -->
<!DOCTYPE svg PUBLIC "-//W3C//DTD SVG 1.1//EN" "http://www.w3.org/Graphics/SVG/1.1/DTD/svg11.dtd">
<svg version="1.1" id="Layer_1" xmlns="http://www.w3.org/2000/svg" xmlns:xlink="http://www.w3.org/1999/xlink" x="0px" y="0px"
	 width="610.496px" height="612px" viewBox="0.739 90 610.496 612" enable-background="new 0.739 90 610.496 612"
	 xml:space="preserve">
<title>Pinterest icon</title>
<path fill="#FFFFFF" d="M306.434,90C137.598,90,0.739,226.858,0.739,395.668c0,129.514,80.529,240.133,194.259,284.631
	c-2.678-24.2-5.075-61.276,1.045-87.694c5.584-23.894,35.853-151.904,35.853-151.904s-9.154-18.359-9.154-45.415
	c0-42.407,24.658-74.23,55.284-74.23c26.112,0,38.709,19.609,38.709,43.044c0,26.239-16.651,65.458-25.296,101.796
	c-7.268,30.422,15.3,55.208,45.263,55.208c54.264,0,96.084-57.248,96.084-139.919c0-72.956-52.606-124.16-127.704-124.16
	c-86.955,0-137.93,65.331-137.93,132.575c0,26.342,10.047,54.646,22.67,69.896c2.524,3.06,2.856,5.737,2.167,8.798
	c-2.295,9.563-7.472,30.574-8.517,34.756c-1.352,5.738-4.386,6.911-10.226,4.208c-38.123-17.595-62.042-73.39-62.042-118.473
	c0-96.288,70.074-184.926,201.959-184.926c106.029,0,188.496,75.659,188.496,176.537c0,105.443-66.479,190.281-158.941,190.281
	c-30.957,0-60.027-16.039-70.329-35.164l-19.1,72.624c-6.859,26.647-25.602,59.976-38.199,80.223
	C243.729,697.155,273.896,702,305.618,702c168.478,0,305.618-136.808,305.618-305.668c0-168.887-137.14-305.669-305.618-305.669
	L306.434,90z"/>
</svg>
