<?xml version="1.0" encoding="utf-8"?>
<!-- Generator: Adobe Illustrator 16.0.0, SVG Export Plug-In . SVG Version: 6.00 Build 0)  -->
<!DOCTYPE svg PUBLIC "-//W3C//DTD SVG 1.1//EN" "http://www.w3.org/Graphics/SVG/1.1/DTD/svg11.dtd">
<svg version="1.1" id="Layer_1" xmlns="http://www.w3.org/2000/svg" xmlns:xlink="http://www.w3.org/1999/xlink" x="0px" y="0px"
	 width="13.041px" height="11.809px" viewBox="0 0 13.041 11.809" enable-background="new 0 0 13.041 11.809" xml:space="preserve">
<g>
	<path fill="#72B9E6" d="M6.486,8.905c-0.375,0.586-0.705,1.087-1.018,1.599c-0.18,0.295-0.334,0.604-0.497,0.909
		c-0.147,0.276-0.386,0.396-0.696,0.396c-1.218-0.001-2.435,0.005-3.652-0.003c-0.457-0.003-0.607-0.165-0.616-0.615
		c-0.013-0.54,0.147-1.04,0.458-1.474C1.004,8.96,1.58,8.229,2.135,7.483c0.199-0.267,0.382-0.546,0.574-0.824
		C2.16,6.527,1.646,6.404,1.133,6.278C1.057,6.26,0.98,6.233,0.906,6.207C-0.174,5.82-0.305,5.18,0.602,4.471
		c0.501-0.393,1.077-0.699,1.643-1.003C2.84,3.147,3.461,2.871,4.076,2.587c0.19-0.09,0.276-0.194,0.306-0.418
		C4.482,1.381,4.781,0.68,5.531,0.265c1.248-0.692,2.76,0.025,3.039,1.517c0.107,0.568,0.377,0.8,0.854,1.031
		c0.984,0.477,1.938,1.015,2.889,1.553c0.207,0.118,0.377,0.324,0.518,0.521c0.347,0.481,0.273,0.88-0.272,1.114
		c-0.545,0.233-1.136,0.367-1.708,0.535c-0.15,0.044-0.313,0.055-0.541,0.093c0.273,0.386,0.52,0.749,0.783,1.099
		c0.425,0.563,0.876,1.109,1.292,1.679c0.388,0.531,0.667,1.111,0.651,1.787c-0.012,0.449-0.162,0.608-0.621,0.611
		c-1.217,0.007-2.436,0.001-3.652,0.004c-0.364,0-0.584-0.187-0.749-0.485c-0.319-0.575-0.642-1.147-0.981-1.712
		C6.9,9.395,6.721,9.206,6.486,8.905"/>
</g>
</svg>
