<?xml version="1.0" encoding="utf-8"?>
<!-- Generator: Adobe Illustrator 16.0.0, SVG Export Plug-In . SVG Version: 6.00 Build 0)  -->
<!DOCTYPE svg PUBLIC "-//W3C//DTD SVG 1.1//EN" "http://www.w3.org/Graphics/SVG/1.1/DTD/svg11.dtd">
<svg version="1.1" id="Layer_1" xmlns="http://www.w3.org/2000/svg" xmlns:xlink="http://www.w3.org/1999/xlink" x="0px" y="0px"
	 width="23.48px" height="23.48px" viewBox="0 0 23.48 23.48" enable-background="new 0 0 23.48 23.48" xml:space="preserve">
<g>
	<g>
		<path fill="#FFFFFF" d="M11.74,2.406c-5.147,0-9.334,4.188-9.334,9.334c0,5.147,4.187,9.334,9.334,9.334
			c5.146,0,9.334-4.187,9.334-9.334C21.074,6.594,16.887,2.406,11.74,2.406 M11.74,23.48C5.267,23.48,0,18.214,0,11.74
			C0,5.268,5.267,0,11.74,0c6.473,0,11.74,5.268,11.74,11.74C23.48,18.214,18.213,23.48,11.74,23.48"/>
	</g>
	<path fill="#FFFFFF" d="M11.74,4.434c-4.036,0-7.307,3.271-7.307,7.307c0,4.036,3.271,7.308,7.307,7.308
		c4.035,0,7.307-3.271,7.307-7.308C19.047,7.705,15.775,4.434,11.74,4.434z M7.72,17.49l0.254-0.946l0.54,0.385L7.72,17.49z
		 M10.72,15.374l-2.005,1.414l-0.677-0.481l0.642-2.39l0.377-0.201l-0.185,1.175l1.05-0.557l-0.185,1.173l1.05-0.556L10.72,15.374z
		 M11.233,14.679l0.071-0.452l-1.05,0.556l0.185-1.174l-1.05,0.557l0.185-1.173l-0.405,0.215l4.334-6.077l2.064,1.474L11.233,14.679
		z M15.887,8.155l-2.063-1.473l0.679-0.952l2.065,1.474L15.887,8.155z"/>
</g>
</svg>
