<?xml version="1.0" encoding="utf-8"?>
<!-- Generator: Adobe Illustrator 16.0.0, SVG Export Plug-In . SVG Version: 6.00 Build 0)  -->
<!DOCTYPE svg PUBLIC "-//W3C//DTD SVG 1.1//EN" "http://www.w3.org/Graphics/SVG/1.1/DTD/svg11.dtd">
<svg version="1.1" id="Layer_1" xmlns="http://www.w3.org/2000/svg" xmlns:xlink="http://www.w3.org/1999/xlink" x="0px" y="0px"
	 width="23.479px" height="23.481px" viewBox="0 0 23.479 23.481" enable-background="new 0 0 23.479 23.481" xml:space="preserve">
<g>
	<path fill="#71B8E6" d="M11.74,8.971c-1.527-0.001-2.794,1.262-2.794,2.785c0,1.557,1.24,2.803,2.791,2.803
		c1.549,0,2.796-1.242,2.798-2.786C14.537,10.234,13.276,8.971,11.74,8.971z M11.74,13.458c-0.949,0-1.718-0.77-1.718-1.717
		c0-0.948,0.769-1.717,1.718-1.717c0.948,0,1.717,0.769,1.717,1.717C13.457,12.688,12.688,13.458,11.74,13.458z"/>
	<path fill="#71B8E6" d="M11.74,1.884c-5.435,0-9.856,4.421-9.856,9.856c0,5.436,4.421,9.856,9.856,9.856
		c5.435,0,9.856-4.42,9.856-9.856C21.597,6.305,17.175,1.884,11.74,1.884z M18.149,13.235c-0.225,0.033-0.451,0.068-0.678,0.102
		c-0.028,0.004-0.053,0.008-0.064,0.049c-0.109,0.408-0.283,0.793-0.482,1.166c-0.018,0.031-0.014,0.051,0.006,0.08
		c0.27,0.377,0.537,0.754,0.806,1.131c0.047,0.066,0.092,0.131,0.134,0.189c-0.63,0.631-1.255,1.256-1.883,1.885
		c-0.016-0.01-0.033-0.023-0.051-0.035c-0.422-0.301-0.846-0.6-1.266-0.9c-0.031-0.023-0.056-0.027-0.091-0.01
		c-0.362,0.193-0.737,0.357-1.133,0.473c-0.058,0.018-0.071,0.047-0.08,0.1c-0.053,0.328-0.11,0.654-0.163,0.979
		c-0.031,0.189-0.061,0.375-0.091,0.564h-2.685c-0.032-0.195-0.064-0.387-0.096-0.58c-0.054-0.322-0.108-0.641-0.161-0.961
		c-0.006-0.037-0.022-0.055-0.06-0.064c-0.41-0.111-0.8-0.275-1.175-0.475c-0.033-0.018-0.057-0.023-0.092,0.002
		c-0.255,0.182-0.51,0.363-0.765,0.545c-0.186,0.131-0.372,0.264-0.551,0.393c-0.63-0.631-1.257-1.258-1.886-1.885
		c0.004-0.008,0.011-0.018,0.018-0.027c0.304-0.428,0.608-0.857,0.914-1.283c0.027-0.037,0.027-0.064,0.006-0.104
		c-0.178-0.332-0.339-0.672-0.44-1.033c-0.032-0.117-0.076-0.193-0.208-0.184c-0.002,0-0.005-0.002-0.006-0.002
		c-0.254-0.043-0.51-0.084-0.764-0.127c-0.237-0.039-0.475-0.08-0.711-0.121v-2.672c0.023-0.003,0.048-0.007,0.072-0.011
		c0.505-0.074,1.011-0.148,1.516-0.222c0.035-0.005,0.055-0.017,0.066-0.057c0.113-0.41,0.276-0.8,0.476-1.175
		c0.02-0.04,0.019-0.066-0.008-0.103C6.3,8.49,6.03,8.116,5.759,7.743C5.718,7.687,5.677,7.63,5.636,7.571
		c0.641-0.63,1.277-1.256,1.911-1.881c0.024,0.017,0.041,0.027,0.058,0.038c0.411,0.29,0.822,0.58,1.233,0.871
		c0.034,0.024,0.059,0.028,0.097,0.007c0.368-0.198,0.749-0.369,1.154-0.48c0.019-0.005,0.043-0.031,0.046-0.05
		c0.091-0.533,0.18-1.067,0.269-1.602h2.672c0.089,0.521,0.179,1.038,0.265,1.559c0.006,0.037,0.018,0.056,0.055,0.066
		c0.402,0.118,0.785,0.283,1.154,0.479c0.035,0.018,0.057,0.016,0.086-0.005c0.307-0.213,0.613-0.424,0.918-0.635
		c0.136-0.093,0.271-0.185,0.408-0.279c0.629,0.639,1.256,1.275,1.881,1.913c-0.014,0.02-0.024,0.035-0.035,0.051
		c-0.301,0.413-0.6,0.827-0.901,1.241c-0.021,0.026-0.032,0.049-0.013,0.086c0.212,0.366,0.371,0.756,0.484,1.165
		c0.008,0.03,0.023,0.043,0.057,0.048c0.13,0.018,0.259,0.042,0.389,0.063c0.4,0.067,0.805,0.134,1.206,0.2V13.1
		C18.736,13.145,18.443,13.19,18.149,13.235z"/>
	<path fill="#71B8E6" d="M11.74,0C5.256,0,0,5.257,0,11.74c0,6.485,5.256,11.741,11.74,11.741c6.483,0,11.739-5.256,11.739-11.741
		C23.479,5.257,18.224,0,11.74,0z M11.74,22.596c-5.986,0-10.856-4.869-10.856-10.856c0-5.986,4.87-10.856,10.856-10.856
		c5.985,0,10.856,4.87,10.856,10.856C22.597,17.727,17.726,22.596,11.74,22.596z"/>
</g>
</svg>
