<?xml version="1.0" encoding="utf-8"?>
<!-- Generator: Adobe Illustrator 16.0.0, SVG Export Plug-In . SVG Version: 6.00 Build 0)  -->
<!DOCTYPE svg PUBLIC "-//W3C//DTD SVG 1.1//EN" "http://www.w3.org/Graphics/SVG/1.1/DTD/svg11.dtd">
<svg version="1.1" id="Layer_1" xmlns="http://www.w3.org/2000/svg" xmlns:xlink="http://www.w3.org/1999/xlink" x="0px" y="0px"
	 width="15.081px" height="11.809px" viewBox="0 0 15.081 11.809" enable-background="new 0 0 15.081 11.809" xml:space="preserve">
<g>
	<path fill="#72B9E6" d="M10.394,1.969h0.509c0.004,0.063,0.012,0.122,0.012,0.182c0.002,1.076,0.019,2.153,0,3.23
		C10.901,6.076,10.84,6.77,10.668,7.45c-0.055,0.217-0.125,0.428-0.274,0.633V1.969z M11.446,4.922
		c0.035-0.649,0.053-1.3,0.063-1.95c0.005-0.297-0.026-0.593-0.04-0.89C11.467,2.041,11.468,2,11.468,1.938h0.628
		c0.018,0.168,0.04,0.342,0.053,0.515c0.11,1.63-0.021,3.231-0.59,4.775c-0.132,0.359-0.324,0.695-0.486,1.041
		c-0.033,0.072-0.08,0.102-0.16,0.096c-0.09-0.008-0.18-0.002-0.291-0.002c0.307-0.432,0.432-0.912,0.539-1.396
		C11.312,6.292,11.409,5.61,11.446,4.922 M12.681,1.898c0.162-0.01,0.347-0.021,0.56-0.033c0,0.146-0.002,0.281,0,0.417
		c0.027,1.71-0.168,3.387-0.767,5c-0.125,0.338-0.282,0.664-0.429,0.992c-0.016,0.035-0.063,0.074-0.096,0.074
		c-0.193,0.008-0.387,0.004-0.563,0.004C12.418,6.325,12.831,4.178,12.681,1.898 M9.487,5.842c-0.093-1.246-0.08-2.495-0.07-3.744
		c0-0.041,0-0.083,0-0.13h0.498v6.08c-0.01,0.004-0.021,0.006-0.032,0.01C9.817,7.85,9.726,7.647,9.694,7.436
		C9.61,6.907,9.528,6.376,9.487,5.842 M13.786,11.809c0.268,0,0.443-0.121,0.504-0.342c0.018-0.063,0.037-0.125-0.041-0.17
		c-0.016-0.01-0.021-0.061-0.016-0.088c0.204-0.768,0.409-1.535,0.615-2.301c0.007-0.025,0.02-0.051,0.034-0.072
		c0.065-0.104,0.132-0.207,0.198-0.313V8.319c-0.063-0.006-0.127-0.016-0.189-0.014c-0.773,0.012-1.546,0.025-2.318,0.039
		c-0.037,0-0.076,0-0.133,0c0.079-0.207,0.152-0.4,0.227-0.594c0.324-0.838,0.631-1.679,0.824-2.56
		c0.154-0.702,0.25-1.415,0.287-2.134c0.019-0.38,0.023-0.761,0.035-1.142c0.002-0.026,0.004-0.051,0.006-0.085
		c0.061-0.008,0.116-0.016,0.172-0.023c0.205-0.031,0.332-0.175,0.334-0.382c0-0.243,0-0.487,0-0.73c0-0.239-0.109-0.384-0.35-0.416
		c-0.561-0.077-1.123-0.147-1.688-0.207C11.942,0.035,11.59,0.022,11.241,0H9.047C9.022,0.006,8.997,0.015,8.971,0.017
		C8.569,0.043,8.165,0.054,7.763,0.095C7.286,0.143,6.812,0.21,6.338,0.28C6.113,0.313,6.006,0.458,6.006,0.685
		c-0.001,0.248-0.001,0.495,0,0.743c0,0.207,0.127,0.351,0.334,0.379c0.056,0.008,0.111,0.016,0.17,0.022
		c0.022,0.328,0.036,0.646,0.068,0.964C6.61,3.11,6.662,3.425,6.705,3.736c0.154,0.024,0.283,0.046,0.432,0.069
		C7.022,3.156,7.032,2.517,7.104,1.867c0.194,0.011,0.379,0.021,0.563,0.031c0.007,0.019,0.012,0.029,0.013,0.039
		c0.007,0.096,0.015,0.19,0.019,0.285C7.722,2.806,7.77,3.385,7.909,3.954C7.917,3.992,7.93,4.045,7.959,4.061
		C8.103,4.142,8.252,4.214,8.423,4.3C8.204,3.509,8.151,2.725,8.237,1.94h0.625c0.002,0.042,0.004,0.068,0.004,0.095
		C8.837,3.491,8.907,4.942,9.12,6.385c0.1,0.678,0.192,1.364,0.565,1.965C9.679,8.354,9.673,8.362,9.667,8.362
		c-0.079,0-0.16-0.006-0.239,0.002C9.338,8.372,9.292,8.334,9.249,8.258C9.045,7.883,8.933,7.477,8.864,7.059
		c-0.033-0.201-0.059-0.404-0.09-0.621c-0.05,0.056-0.082,0.114-0.132,0.143C8.434,6.698,8.435,6.872,8.473,7.077
		c0.07,0.379,0.148,0.754,0.361,1.084c0.039,0.063,0.085,0.121,0.135,0.191c-0.215,0-0.415,0.002-0.615-0.004
		c-0.027,0-0.063-0.025-0.083-0.049C8.134,8.141,8.034,7.963,7.995,7.756C7.96,7.559,7.93,7.362,7.896,7.151
		c-0.133,0.08-0.254,0.158-0.381,0.225C7.448,7.411,7.448,7.446,7.464,7.51c0.082,0.297,0.188,0.582,0.423,0.84
		C6.991,8.334,6.127,8.321,5.26,8.305C5.229,8.512,5.276,8.678,5.421,8.817c0.03,0.029,0.053,0.074,0.064,0.115
		c0.203,0.752,0.404,1.506,0.605,2.258c0.008,0.031,0.016,0.084,0.001,0.098c-0.136,0.102-0.051,0.209,0.001,0.301
		c0.099,0.174,0.267,0.221,0.458,0.221H13.786z"/>
	<path fill="#72B9E6" d="M3.385,7.663C3.27,7.692,3.154,7.723,3.038,7.752C2.656,7.848,2.271,7.93,1.877,7.959
		C1.584,7.983,1.293,7.961,1.003,7.93C0.769,7.903,0.549,7.834,0.36,7.686C0.238,7.588,0.19,7.469,0.223,7.317
		C0.238,7.25,0.254,7.188,0.276,7.124c0.033-0.096,0.072-0.191,0.11-0.293C0.321,6.825,0.292,6.864,0.263,6.903
		C0.149,7.065,0.044,7.231,0,7.426v0.146c0.028,0.053,0.046,0.121,0.088,0.16C0.181,7.815,0.28,7.899,0.389,7.956
		c0.284,0.152,0.599,0.197,0.914,0.229C1.646,8.215,1.989,8.208,2.331,8.17c0.386-0.045,0.764-0.121,1.134-0.24
		c0.069-0.023,0.101-0.102,0.076-0.182C3.515,7.665,3.468,7.641,3.385,7.663"/>
	<path fill="#72B9E6" d="M7.973,6.433C8.26,6.257,8.524,6.05,8.688,5.744c0.158-0.295,0.12-0.597-0.127-0.82
		C8.447,4.82,8.312,4.732,8.172,4.669c-0.521-0.232-1.078-0.278-1.6-0.296c-0.938,0.021-1.81,0.172-2.638,0.531
		C3.504,5.092,3.094,5.315,2.762,5.658c-0.145,0.149-0.263,0.318-0.295,0.53c-0.05,0.336,0.127,0.558,0.392,0.724
		c0.367,0.23,0.781,0.313,1.203,0.354c0.66,0.066,1.316,0.016,1.964-0.113C6.713,7.016,7.374,6.801,7.973,6.433"/>
	<path fill="#72B9E6" d="M0.523,7.563c0.17,0.105,0.358,0.148,0.553,0.168c0.342,0.035,0.681,0.01,1.017-0.053
		c0.29-0.055,0.571-0.139,0.844-0.252C3.001,7.399,3.021,7.344,2.995,7.28C2.97,7.215,2.928,7.2,2.854,7.227
		C2.759,7.262,2.664,7.295,2.567,7.329c-0.456,0.16-0.922,0.27-1.409,0.242C1.037,7.563,0.911,7.547,0.794,7.508
		C0.524,7.417,0.463,7.288,0.54,7.014c0.02-0.07,0.041-0.139,0.061-0.209C0.596,6.801,0.59,6.795,0.585,6.79
		C0.564,6.807,0.534,6.819,0.522,6.84C0.466,6.95,0.403,7.059,0.367,7.176C0.313,7.348,0.37,7.467,0.523,7.563"/>
</g>
</svg>
