<?xml version="1.0" encoding="utf-8"?>
<!-- Generator: Adobe Illustrator 16.0.0, SVG Export Plug-In . SVG Version: 6.00 Build 0)  -->
<!DOCTYPE svg PUBLIC "-//W3C//DTD SVG 1.1//EN" "http://www.w3.org/Graphics/SVG/1.1/DTD/svg11.dtd">
<svg version="1.1" id="Layer_1" xmlns="http://www.w3.org/2000/svg" xmlns:xlink="http://www.w3.org/1999/xlink" x="0px" y="0px"
	 width="23.479px" height="23.481px" viewBox="0 0 23.479 23.481" enable-background="new 0 0 23.479 23.481" xml:space="preserve">
<g>
	<path fill="#71B8E6" d="M11.74,0C5.256,0,0,5.257,0,11.74c0,6.485,5.256,11.741,11.74,11.741c6.483,0,11.739-5.256,11.739-11.741
		C23.479,5.257,18.224,0,11.74,0z M11.74,22.598c-5.986,0-10.857-4.871-10.857-10.858c0-5.986,4.871-10.856,10.857-10.856
		c5.985,0,10.856,4.87,10.856,10.856C22.597,17.727,17.726,22.598,11.74,22.598z"/>
	<path fill="#71B8E6" d="M11.74,1.884c-5.435,0-9.857,4.421-9.857,9.856c0,5.434,4.422,9.858,9.857,9.858
		c5.435,0,9.856-4.424,9.856-9.858C21.597,6.305,17.175,1.884,11.74,1.884z M17.439,13.764c-0.029,0.424-0.386,0.697-0.733,0.92
		c-0.822,0.527-1.748,0.744-2.699,0.863c-1.662,0.211-3.313,0.158-4.911-0.398c-0.442-0.154-0.845-0.424-1.263-0.648
		c-0.166-0.088-0.172-0.211-0.082-0.387c0.344-0.66,0.242-1.137-0.271-1.674c-0.281-0.295-0.002-0.61,0.003-0.963
		c1.408,0.46,2.771,0.884,4.115,1.358c0.561,0.197,1.063,0.188,1.619-0.012c1.266-0.452,2.551-0.853,3.826-1.274
		c0.125-0.04,0.248-0.078,0.41-0.129C17.454,12.224,17.492,12.999,17.439,13.764z M19.907,9.699c-0.453,0.18-0.92,0.325-1.383,0.479
		c-1.941,0.649-3.881,1.304-5.826,1.938c-0.187,0.061-0.426,0.058-0.611-0.002c-1.268-0.409-2.529-0.842-3.792-1.269
		c0.003-0.03,0.005-0.062,0.007-0.094c0.952-0.372,1.902-0.746,2.855-1.113c0.401-0.154,0.805-0.297,1.209-0.441
		c0.246-0.09,0.443-0.233,0.352-0.525c-0.096-0.303-0.339-0.292-0.586-0.195c-1.473,0.58-2.949,1.148-4.413,1.748
		c-0.93,0.382-1.122,1.229-1.22,2.107c-0.008,0.074,0.065,0.169,0.121,0.236c0.305,0.365,0.31,0.709,0.067,1.111
		c-0.086,0.143-0.094,0.352-0.093,0.529c0.005,0.607,0.062,1.215,0.038,1.82c-0.021,0.518-0.272,0.953-0.672,1.297
		c-0.263,0.229-0.551,0.271-0.86,0.129c-0.288-0.135-0.568-0.287-0.904-0.457c0.154-0.191,0.262-0.342,0.386-0.479
		c0.615-0.67,0.994-1.451,1.115-2.352c0.016-0.121-0.043-0.293-0.129-0.381c-0.373-0.385-0.381-0.84-0.027-1.242
		c0.115-0.13,0.177-0.319,0.229-0.492c0.18-0.597,0.346-1.199,0.532-1.854C5.961,10.083,5.511,9.951,5.08,9.771
		C4.868,9.683,4.692,9.509,4.499,9.373c0.192-0.135,0.364-0.325,0.577-0.397c2.354-0.802,4.713-1.587,7.074-2.366
		c0.145-0.048,0.334-0.042,0.479,0.006c2.342,0.764,4.68,1.54,7.019,2.313c0.101,0.033,0.212,0.065,0.294,0.127
		c0.12,0.091,0.219,0.21,0.327,0.317C20.149,9.484,20.049,9.643,19.907,9.699z"/>
</g>
</svg>
