<?xml version="1.0" encoding="utf-8"?>
<!-- Generator: Adobe Illustrator 16.0.0, SVG Export Plug-In . SVG Version: 6.00 Build 0)  -->
<!DOCTYPE svg PUBLIC "-//W3C//DTD SVG 1.1//EN" "http://www.w3.org/Graphics/SVG/1.1/DTD/svg11.dtd">
<svg version="1.1" id="Layer_1" xmlns="http://www.w3.org/2000/svg" xmlns:xlink="http://www.w3.org/1999/xlink" x="0px" y="0px"
	 width="23.48px" height="23.48px" viewBox="0 0 23.48 23.48" enable-background="new 0 0 23.48 23.48" xml:space="preserve">
<g>
	<g>
		<path fill="#FFFFFF" d="M11.74,2.406c-5.146,0-9.334,4.188-9.334,9.333c0,5.148,4.188,9.334,9.334,9.334s9.334-4.186,9.334-9.334
			C21.074,6.594,16.887,2.406,11.74,2.406 M11.74,23.48C5.266,23.48,0,18.214,0,11.74C0,5.268,5.266,0,11.74,0
			c6.473,0,11.74,5.268,11.74,11.74C23.48,18.214,18.213,23.48,11.74,23.48"/>
	</g>
	<path fill="#FFFFFF" d="M11.74,4.434c-4.036,0-7.307,3.271-7.307,7.306c0,4.037,3.271,7.309,7.307,7.309
		c4.035,0,7.307-3.271,7.307-7.309C19.047,7.705,15.775,4.434,11.74,4.434z M14.998,16.06c-1.987,2.146-5.254,2.289-7.416,0.475
		c-2.261-1.896-2.559-5.193-0.791-7.45c1.815-2.317,4.881-2.577,6.963-1.333c-0.258,0.246-0.504,0.479-0.746,0.714
		c-0.151,0.148-0.148,0.15-0.352,0.067c-0.678-0.279-1.385-0.399-2.109-0.293c-1.623,0.235-2.766,1.115-3.405,2.628
		c-0.228,0.538-0.321,1.11-0.293,1.694c0.048,0.975,0.382,1.842,1.022,2.582c0.598,0.689,1.344,1.146,2.233,1.344
		c1.282,0.283,2.458,0.023,3.501-0.773c0.865-0.662,1.381-1.547,1.57-2.613c0.144-0.818,0.039-1.615-0.297-2.378
		c-0.041-0.096-0.041-0.153,0.037-0.229c0.236-0.226,0.463-0.46,0.694-0.691c0.028-0.028,0.058-0.054,0.087-0.082
		C16.688,11.263,16.869,14.042,14.998,16.06z M10.543,14.441c1.166,0.264,2.264-0.416,2.547-1.578
		c0.039-0.168,0.037-0.344,0.061-0.514c0.006-0.045,0.016-0.1,0.044-0.129c0.269-0.273,0.54-0.545,0.812-0.814
		c0.014-0.014,0.033-0.021,0.049-0.031c0.391,0.971,0.217,2.551-1.032,3.539c-1.213,0.963-2.994,0.902-4.132-0.139
		c-1.17-1.072-1.398-2.807-0.531-4.127c0.893-1.356,2.503-1.711,3.727-1.265c-0.154,0.153-0.295,0.291-0.435,0.429
		c-0.138,0.138-0.271,0.278-0.413,0.408c-0.042,0.039-0.111,0.068-0.167,0.069c-1.019,0.012-1.849,0.671-2.086,1.66
		C8.727,13.033,9.453,14.195,10.543,14.441z M15.75,9.04c-0.05,0.051-0.094,0.088-0.177,0.067c-0.088-0.022-0.187-0.009-0.272-0.034
		c-0.099-0.029-0.154,0.006-0.22,0.072c-0.959,0.963-1.919,1.924-2.881,2.885c-0.06,0.059-0.075,0.107-0.062,0.197
		c0.107,0.795-0.53,1.285-1.092,1.287c-0.505,0-1.043-0.377-1.111-0.984c-0.067-0.598,0.34-1.131,0.931-1.227
		c0.114-0.02,0.237-0.02,0.349,0.002c0.092,0.02,0.141-0.006,0.198-0.064c0.544-0.545,1.091-1.089,1.634-1.634
		c0.395-0.394,0.78-0.794,1.186-1.177c0.132-0.126,0.17-0.25,0.121-0.409c-0.051-0.168-0.008-0.286,0.123-0.41
		c0.438-0.422,0.865-0.858,1.295-1.289c0.031-0.031,0.054-0.07,0.08-0.105c0.015,0.006,0.029,0.014,0.043,0.02
		c0.053,0.384,0.104,0.768,0.156,1.154c0.387,0.053,0.771,0.104,1.178,0.159c-0.041,0.046-0.066,0.076-0.094,0.104
		C16.674,8.116,16.21,8.577,15.75,9.04z"/>
</g>
</svg>
