<?xml version="1.0" encoding="utf-8"?>
<!-- Generator: Adobe Illustrator 16.0.0, SVG Export Plug-In . SVG Version: 6.00 Build 0)  -->
<!DOCTYPE svg PUBLIC "-//W3C//DTD SVG 1.1//EN" "http://www.w3.org/Graphics/SVG/1.1/DTD/svg11.dtd">
<svg version="1.1" id="Layer_1" xmlns="http://www.w3.org/2000/svg" xmlns:xlink="http://www.w3.org/1999/xlink" x="0px" y="0px"
	 width="23.479px" height="23.481px" viewBox="0 0 23.479 23.481" enable-background="new 0 0 23.479 23.481" xml:space="preserve">
<g>
	<path fill="#71B8E6" d="M10.712,11.945c-0.188,0.008-0.342,0.159-0.352,0.348c-0.011,0.182,0.13,0.354,0.322,0.374
		c0.125,0.012,0.252,0.002,0.4,0.002c0-0.141,0.007-0.262,0-0.382C11.067,12.088,10.901,11.938,10.712,11.945z"/>
	<path fill="#71B8E6" d="M11.064,6.196C9.618,6.513,8.625,7.394,8.197,8.811c-0.435,1.438-0.09,2.728,0.961,3.813
		c0.277,0.287,0.514,0.602,0.698,0.955c0.38,0.727,0.562,1.51,0.646,2.318c0.024,0.221,0.038,0.443,0.055,0.66h0.527v-0.184
		c0-0.926,0-1.852,0-2.777c0-0.365,0-0.365-0.357-0.375c-0.041-0.002-0.08-0.006-0.117-0.01c-0.679-0.084-1.027-0.852-0.644-1.415
		c0.23-0.336,0.629-0.476,1.02-0.356c0.399,0.122,0.647,0.461,0.649,0.894v0.333h0.391c0-0.156-0.01-0.308,0.002-0.457
		c0.032-0.385,0.318-0.706,0.697-0.793c0.385-0.089,0.802,0.098,1.001,0.448c0.19,0.33,0.137,0.766-0.12,1.053
		c-0.239,0.266-0.548,0.324-0.882,0.301c-0.132-0.008-0.164,0.037-0.163,0.164c0.005,1.01,0.003,2.018,0.003,3.027v0.146h0.53
		c0.008-0.078,0.01-0.146,0.02-0.215c0.068-0.492,0.107-0.992,0.213-1.477c0.184-0.848,0.535-1.615,1.161-2.236
		c0.899-0.887,1.25-1.968,1.101-3.208C15.324,7.246,13.201,5.728,11.064,6.196z"/>
	<path fill="#71B8E6" d="M13.292,12.311c0-0.184-0.15-0.348-0.334-0.364c-0.182-0.016-0.35,0.103-0.377,0.294
		c-0.021,0.137-0.006,0.278-0.006,0.428c0.139,0,0.266,0.01,0.389-0.002C13.151,12.649,13.292,12.489,13.292,12.311z"/>
	<path fill="#71B8E6" d="M11.74,0C5.256,0,0,5.257,0,11.74c0,6.485,5.256,11.741,11.74,11.741c6.483,0,11.739-5.256,11.739-11.741
		C23.479,5.257,18.224,0,11.74,0z M11.74,22.598c-5.986,0-10.856-4.871-10.856-10.858c0-5.986,4.87-10.856,10.856-10.856
		c5.985,0,10.856,4.87,10.856,10.856C22.597,17.727,17.726,22.598,11.74,22.598z"/>
	<rect x="11.643" y="13.227" fill="#71B8E6" width="0.362" height="3.328"/>
	<path fill="#71B8E6" d="M11.74,1.884c-5.434,0-9.856,4.421-9.856,9.856c0,5.434,4.422,9.858,9.856,9.858
		c5.435,0,9.856-4.424,9.856-9.858C21.597,6.305,17.175,1.884,11.74,1.884z M14.412,4.811c0.197-0.348,0.397-0.695,0.603-1.041
		c0.068-0.117,0.176-0.169,0.311-0.131c0.13,0.035,0.191,0.129,0.205,0.284c-0.011,0.033-0.025,0.09-0.055,0.14
		c-0.192,0.34-0.387,0.679-0.586,1.017c-0.092,0.157-0.243,0.203-0.385,0.126C14.367,5.131,14.325,4.965,14.412,4.811z
		 M11.551,3.591h0.002c0-0.19-0.002-0.382,0-0.571c0.003-0.193,0.108-0.311,0.274-0.308c0.162,0.001,0.269,0.115,0.27,0.3
		c0.003,0.391,0.003,0.78,0.001,1.172c-0.002,0.188-0.104,0.295-0.271,0.298c-0.172,0.002-0.273-0.106-0.276-0.305
		C11.549,3.981,11.551,3.785,11.551,3.591z M8.455,3.628c0.038,0.028,0.134,0.071,0.179,0.146c0.212,0.346,0.413,0.699,0.611,1.053
		c0.079,0.141,0.033,0.298-0.092,0.372C9.019,5.279,8.856,5.244,8.771,5.103C8.562,4.748,8.354,4.394,8.157,4.033
		C8.053,3.845,8.191,3.623,8.455,3.628z M5.003,10.118C4.82,10.116,4.689,9.996,4.689,9.839C4.69,9.681,4.82,9.564,5.007,9.563
		c0.381-0.002,0.763-0.002,1.144,0C6.347,9.564,6.478,9.683,6.47,9.85c-0.004,0.16-0.13,0.267-0.322,0.269
		c-0.191,0.002-0.382,0-0.573,0C5.385,10.118,5.194,10.12,5.003,10.118z M7.127,12.86c-0.375,0.229-0.759,0.445-1.14,0.662
		c-0.028,0.018-0.066,0.016-0.089,0.021c-0.136-0.008-0.23-0.063-0.268-0.182c-0.038-0.121-0.019-0.244,0.096-0.313
		c0.368-0.221,0.739-0.436,1.117-0.643c0.12-0.066,0.261-0.014,0.333,0.098C7.252,12.616,7.239,12.792,7.127,12.86z M6.843,7.273
		C6.464,7.07,6.094,6.853,5.726,6.631C5.603,6.557,5.58,6.388,5.655,6.265C5.73,6.142,5.884,6.1,6.027,6.178
		c0.245,0.134,0.484,0.276,0.725,0.415c0.11,0.063,0.228,0.118,0.327,0.195c0.07,0.055,0.116,0.141,0.173,0.215
		C7.221,7.224,7.02,7.368,6.843,7.273z M12.011,20.522c-0.125,0.006-0.254,0.006-0.381,0c-0.197-0.012-0.342-0.17-0.342-0.365
		c0-0.201,0.141-0.352,0.342-0.367c0.063-0.004,0.127,0,0.191,0s0.127-0.002,0.189,0c0.209,0.012,0.354,0.166,0.353,0.375
		C12.358,20.36,12.214,20.514,12.011,20.522z M12.613,19.467c-0.267,0-0.528,0-0.794,0c-0.258,0-0.518,0-0.777,0
		c-0.244-0.004-0.401-0.152-0.399-0.373c0.002-0.217,0.158-0.361,0.394-0.363c0.524-0.002,1.048-0.002,1.569,0
		c0.246,0.002,0.402,0.148,0.4,0.373C13.005,19.317,12.849,19.463,12.613,19.467z M13.314,18.409c-0.499,0-0.998,0-1.496,0
		c-0.495,0-0.988,0-1.481,0c-0.25-0.002-0.422-0.154-0.42-0.373c0.004-0.215,0.167-0.363,0.412-0.363
		c0.996-0.002,1.994-0.002,2.991,0c0.246,0,0.409,0.15,0.412,0.363C13.736,18.254,13.563,18.407,13.314,18.409z M15.011,13.147
		c-0.531,0.533-0.832,1.189-0.973,1.91c-0.109,0.543-0.158,1.104-0.203,1.656c-0.035,0.371-0.231,0.59-0.606,0.59
		c-0.47,0.002-0.94,0-1.411,0c-0.461,0-0.921,0-1.382,0c-0.392,0-0.601-0.213-0.616-0.604c-0.032-0.922-0.15-1.826-0.557-2.668
		C9.104,13.7,8.887,13.405,8.63,13.137c-1.247-1.304-1.659-2.843-1.128-4.561C8.032,6.861,9.24,5.81,11.001,5.46
		c2.468-0.492,4.892,1.208,5.291,3.7C16.538,10.694,16.117,12.038,15.011,13.147z M16.581,6.776
		c0.338-0.197,0.674-0.395,1.016-0.586c0.213-0.119,0.434-0.006,0.47,0.239c-0.062,0.076-0.104,0.177-0.181,0.224
		c-0.342,0.212-0.69,0.408-1.039,0.604c-0.148,0.084-0.303,0.041-0.383-0.094S16.429,6.866,16.581,6.776z M18.001,13.399
		c-0.074,0.143-0.234,0.188-0.391,0.098c-0.35-0.195-0.693-0.398-1.04-0.598c-0.128-0.076-0.168-0.191-0.129-0.328
		c0.038-0.127,0.136-0.184,0.29-0.192c0.033,0.014,0.09,0.03,0.141,0.059c0.336,0.191,0.67,0.383,1.002,0.578
		C18.03,13.108,18.079,13.258,18.001,13.399z M18.64,10.118c-0.191,0.002-0.383,0-0.573,0s-0.381,0.002-0.571,0
		c-0.191-0.002-0.318-0.115-0.318-0.274c0-0.163,0.125-0.279,0.313-0.281c0.387-0.002,0.773-0.002,1.159,0
		c0.185,0.002,0.315,0.125,0.312,0.283C18.954,10.004,18.826,10.116,18.64,10.118z"/>
</g>
</svg>
