<?xml version="1.0" encoding="utf-8"?>
<!-- Generator: Adobe Illustrator 16.0.0, SVG Export Plug-In . SVG Version: 6.00 Build 0)  -->
<!DOCTYPE svg PUBLIC "-//W3C//DTD SVG 1.1//EN" "http://www.w3.org/Graphics/SVG/1.1/DTD/svg11.dtd">
<svg version="1.1" id="Layer_1" xmlns="http://www.w3.org/2000/svg" xmlns:xlink="http://www.w3.org/1999/xlink" x="0px" y="0px"
	 width="10.051px" height="12.869px" viewBox="0 0 10.051 12.869" enable-background="new 0 0 10.051 12.869" xml:space="preserve">
<g>
	<path fill="#72B9E6" d="M1.04,12.869c0.031-0.172,0.12-0.305,0.235-0.424c0.227-0.234,0.511-0.377,0.813-0.494
		c0.315-0.123,0.643-0.201,0.979-0.252c0.008-0.002,0.016-0.004,0.029-0.008c-0.006-0.016-0.008-0.029-0.016-0.043
		c-0.281-0.506-0.47-1.045-0.554-1.619C2.463,9.603,2.463,9.173,2.518,8.746C2.639,7.8,3.006,6.947,3.51,6.145
		c0.012-0.02,0.023-0.038,0.035-0.058c0.002-0.003,0.002-0.008,0.004-0.019c-0.018,0-0.035-0.001-0.051,0
		C2.42,6.14,1.594,5.707,0.985,4.847c-0.336-0.478-0.54-1.013-0.687-1.57c-0.111-0.424-0.19-0.854-0.228-1.291
		C0.04,1.614,0.023,1.242,0,0.87c-0.001-0.015,0-0.03,0-0.058c0.156,0.043,0.307,0.079,0.453,0.124
		c0.753,0.227,1.469,0.532,2.12,0.973c0.474,0.322,0.89,0.703,1.187,1.195c0.309,0.507,0.445,1.055,0.397,1.645
		C4.143,4.912,4.118,5.074,4.1,5.234c0.002-0.002,0.01-0.008,0.015-0.016C4.48,4.634,4.799,4.026,5.006,3.367
		c0.146-0.463,0.229-0.937,0.19-1.423C5.131,1.122,4.76,0.473,4.04,0.028C4.031,0.022,4.021,0.017,4.018,0
		c0.074,0.032,0.149,0.062,0.221,0.099c0.718,0.372,1.15,0.955,1.309,1.734c0.088,0.436,0.075,0.871,0.006,1.308
		C5.412,4.015,5.077,4.821,4.67,5.603C4.376,6.164,4.127,6.742,3.975,7.359C3.84,7.912,3.778,8.472,3.822,9.039
		c0.074,0.961,0.42,1.824,0.996,2.6c0.02,0.025,0.066,0.041,0.102,0.045c0.303,0.043,0.6,0.105,0.891,0.201
		c0.32,0.105,0.625,0.24,0.887,0.459c0.163,0.135,0.293,0.293,0.341,0.504c0.002,0.006,0.001,0.014,0.002,0.021H1.04z"/>
	<path fill="#72B9E6" d="M10.051,5.442C9.973,5.601,9.897,5.757,9.819,5.911C9.492,6.551,9.123,7.164,8.66,7.718
		c-0.4,0.48-0.854,0.9-1.416,1.195C6.818,9.134,6.367,9.257,5.886,9.25C5.371,9.24,4.896,9.093,4.461,8.822
		c-0.053-0.035-0.07-0.07-0.068-0.133c0.018-0.561,0.127-1.1,0.396-1.6C5.092,6.53,5.547,6.124,6.121,5.842
		C6.586,5.613,7.078,5.483,7.59,5.407c0.447-0.065,0.896-0.092,1.347-0.072c0.349,0.016,0.696,0.058,1.045,0.09
		C10.002,5.426,10.023,5.435,10.051,5.442"/>
</g>
</svg>
