<?xml version="1.0" encoding="utf-8"?>
<!-- Generator: Adobe Illustrator 16.0.0, SVG Export Plug-In . SVG Version: 6.00 Build 0)  -->
<!DOCTYPE svg PUBLIC "-//W3C//DTD SVG 1.1//EN" "http://www.w3.org/Graphics/SVG/1.1/DTD/svg11.dtd">
<svg version="1.1" id="Layer_1" xmlns="http://www.w3.org/2000/svg" xmlns:xlink="http://www.w3.org/1999/xlink" x="0px" y="0px"
	 width="23.479px" height="23.482px" viewBox="0 0 23.479 23.482" enable-background="new 0 0 23.479 23.482" xml:space="preserve">
<g>
	<path fill="#71B8E6" d="M11.985,11.838c0.045-0.165,0.148-0.238,0.309-0.272c0.543-0.114,1.084-0.239,1.627-0.358
		c0.25-0.057,0.418-0.199,0.5-0.443c0.082-0.243,0.168-0.484,0.25-0.726c0.054-0.159,0.104-0.319,0.158-0.487
		c-1.348-0.459-2.68-0.912-4.018-1.367c-0.147,0.428-0.277,0.837-0.427,1.241c-0.091,0.242-0.043,0.427,0.13,0.622
		c0.37,0.416,0.718,0.853,1.078,1.277c0.111,0.129,0.146,0.258,0.078,0.421c-0.057,0.139-0.104,0.286-0.144,0.432
		c-0.05,0.184-0.159,0.275-0.35,0.314c-0.533,0.107-1.063,0.238-1.596,0.354C9.324,12.9,9.155,13.048,9.07,13.296
		c-0.104,0.309-0.212,0.619-0.316,0.93c-0.01,0.033-0.009,0.072-0.015,0.113c1.337,0.455,2.664,0.904,4.008,1.361
		c0.127-0.387,0.246-0.76,0.379-1.127c0.074-0.203,0.035-0.359-0.107-0.521c-0.385-0.447-0.755-0.906-1.137-1.355
		c-0.096-0.115-0.113-0.229-0.064-0.363C11.878,12.169,11.939,12.005,11.985,11.838z"/>
	<path fill="#71B8E6" d="M11.74,1.885c-5.435,0-9.857,4.421-9.857,9.856c0,5.436,4.422,9.856,9.857,9.856
		c5.435,0,9.856-4.42,9.856-9.856C21.597,6.306,17.175,1.885,11.74,1.885z M19.271,9.355c0.071,0.18,0.13,0.37,0.165,0.563
		c0.066,0.367-0.145,0.67-0.495,0.749c-0.323,0.07-0.638-0.12-0.741-0.464c-0.062-0.196-0.109-0.397-0.142-0.513
		c0.005-0.391,0.21-0.633,0.517-0.703C18.851,8.928,19.161,9.081,19.271,9.355z M17.318,6.815c0.244-0.094,0.53-0.028,0.7,0.176
		c0.122,0.146,0.234,0.302,0.333,0.465c0.169,0.283,0.087,0.642-0.174,0.831c-0.267,0.192-0.622,0.163-0.843-0.091
		c-0.131-0.151-0.246-0.32-0.352-0.49c-0.05-0.084-0.063-0.193-0.093-0.291C16.911,7.14,17.069,6.909,17.318,6.815z M15.637,18.777
		c-0.318,0.166-0.64,0.33-0.974,0.465c-0.742,0.299-1.515,0.482-2.316,0.533c-0.042,0.002-0.083,0.02-0.125,0.029h-0.887
		c-0.051-0.008-0.105-0.021-0.159-0.027c-0.469-0.072-0.946-0.104-1.404-0.223c-1.877-0.484-3.395-1.518-4.518-3.102
		c-1.318-1.859-1.746-3.932-1.316-6.158c0.366-1.91,1.351-3.474,2.873-4.687C8,4.66,9.361,4.111,10.875,3.951
		c0.265-0.028,0.533-0.042,0.808-0.062c0-0.199-0.008-0.39,0.003-0.579c0.008-0.104,0.051-0.204,0.076-0.307h0.131
		c0.489,0.4,0.976,0.803,1.465,1.201c0.274,0.226,0.276,0.413,0.009,0.641c-0.402,0.337-0.8,0.678-1.201,1.018
		c-0.049,0.042-0.095,0.094-0.151,0.123c-0.068,0.034-0.164,0.086-0.218,0.062c-0.051-0.025-0.086-0.131-0.092-0.204
		c-0.015-0.163-0.006-0.328-0.007-0.492c0-0.053-0.005-0.106-0.009-0.203c-0.445,0.058-0.882,0.083-1.304,0.176
		C8.22,5.804,6.647,7.05,5.686,9.045c-0.564,1.17-0.752,2.414-0.556,3.699c0.377,2.48,1.739,4.227,4.016,5.252
		c0.99,0.445,2.046,0.594,3.134,0.502c0.933-0.076,1.804-0.34,2.632-0.773c0.152-0.08,0.338-0.139,0.506-0.131
		c0.279,0.01,0.496,0.24,0.543,0.49C16.012,18.371,15.899,18.64,15.637,18.777z M12.443,12.548c0.341,0.414,0.679,0.828,1.028,1.234
		c0.234,0.271,0.279,0.566,0.166,0.898c-0.116,0.346-0.23,0.693-0.344,1.039c-0.016,0.045-0.03,0.09-0.047,0.143
		c0.045,0.018,0.08,0.031,0.114,0.045c0.126,0.045,0.169,0.125,0.12,0.256c-0.063,0.166-0.117,0.338-0.175,0.51
		c-0.065,0.188-0.113,0.213-0.304,0.148c-0.953-0.324-1.906-0.648-2.86-0.973c-0.763-0.26-1.527-0.518-2.289-0.777
		c-0.22-0.074-0.238-0.111-0.164-0.336c0.043-0.129,0.088-0.258,0.131-0.387c0.093-0.277,0.102-0.281,0.405-0.191
		c0.111-0.33,0.223-0.648,0.326-0.969c0.155-0.486,0.476-0.775,0.983-0.873c0.464-0.088,0.925-0.205,1.387-0.311
		c0.18-0.043,0.272-0.336,0.153-0.481c-0.36-0.433-0.717-0.867-1.078-1.299C9.79,9.981,9.75,9.71,9.847,9.414
		c0.137-0.419,0.276-0.838,0.415-1.256c0.015-0.045,0.027-0.092,0.039-0.135c-0.284-0.129-0.284-0.129-0.186-0.419
		c0.045-0.134,0.09-0.268,0.136-0.402c0.063-0.181,0.109-0.204,0.293-0.144c0.635,0.214,1.27,0.429,1.903,0.646
		c1.083,0.368,2.166,0.736,3.247,1.104c0.228,0.079,0.247,0.115,0.17,0.347c-0.042,0.124-0.086,0.248-0.128,0.372
		c-0.097,0.283-0.104,0.287-0.398,0.2c-0.041,0.108-0.082,0.218-0.121,0.328c-0.098,0.288-0.198,0.578-0.293,0.867
		c-0.15,0.451-0.467,0.709-0.926,0.807c-0.459,0.097-0.916,0.2-1.373,0.301C12.387,12.083,12.288,12.361,12.443,12.548z
		 M15.764,6.524c-0.149-0.088-0.294-0.19-0.431-0.298c-0.285-0.228-0.336-0.591-0.131-0.874c0.205-0.282,0.566-0.349,0.871-0.157
		c0.135,0.085,0.267,0.174,0.392,0.271c0.17,0.13,0.26,0.305,0.255,0.522C16.716,6.471,16.183,6.772,15.764,6.524z M17.763,17.027
		c-0.113,0.145-0.24,0.285-0.377,0.41c-0.199,0.18-0.434,0.223-0.683,0.113c-0.249-0.111-0.37-0.311-0.38-0.58
		c0-0.012-0.001-0.023,0-0.033c0.014-0.463,0.682-1.021,1.09-0.91C17.864,16.146,18.048,16.654,17.763,17.027z M18.769,15.408
		c-0.207,0.191-0.516,0.199-0.757,0.041c-0.224-0.146-0.341-0.438-0.257-0.688c0.066-0.195,0.146-0.391,0.242-0.57
		c0.137-0.258,0.437-0.369,0.717-0.291c0.273,0.072,0.463,0.322,0.466,0.67C19.107,14.833,19.028,15.166,18.769,15.408z
		 M18.976,13.156c-0.341-0.025-0.584-0.283-0.593-0.623c-0.001-0.059,0-0.119,0-0.209c0.011-0.096,0.017-0.223,0.035-0.346
		c0.055-0.335,0.344-0.566,0.672-0.54c0.329,0.026,0.583,0.296,0.583,0.633c-0.001,0.18-0.01,0.361-0.033,0.541
		C19.596,12.949,19.305,13.183,18.976,13.156z"/>
	<path fill="#71B8E6" d="M11.74,0C5.256,0,0,5.258,0,11.741c0,6.485,5.256,11.741,11.74,11.741c6.483,0,11.739-5.256,11.739-11.741
		C23.479,5.258,18.224,0,11.74,0z M11.74,22.597c-5.986,0-10.857-4.869-10.857-10.856c0-5.986,4.871-10.856,10.857-10.856
		c5.985,0,10.856,4.87,10.856,10.856C22.597,17.728,17.726,22.597,11.74,22.597z"/>
</g>
</svg>
