<?xml version="1.0" encoding="utf-8"?>
<!-- Generator: Adobe Illustrator 16.0.0, SVG Export Plug-In . SVG Version: 6.00 Build 0)  -->
<!DOCTYPE svg PUBLIC "-//W3C//DTD SVG 1.1//EN" "http://www.w3.org/Graphics/SVG/1.1/DTD/svg11.dtd">
<svg version="1.1" id="Layer_1" xmlns="http://www.w3.org/2000/svg" xmlns:xlink="http://www.w3.org/1999/xlink" x="0px" y="0px"
	 width="23.48px" height="23.48px" viewBox="0 0 23.48 23.48" enable-background="new 0 0 23.48 23.48" xml:space="preserve">
<g>
	<path fill="#71B8E6" d="M11.74,1.884c-5.436,0-9.856,4.421-9.856,9.856c0,5.436,4.42,9.857,9.856,9.857s9.857-4.422,9.857-9.857
		C21.598,6.305,17.176,1.884,11.74,1.884z M18.494,11.568c0,1.551,0.002,3.102-0.002,4.652c-0.002,1.143-0.712,1.938-1.85,1.947
		c-3.215,0.025-6.434,0.025-9.651,0c-1.101-0.01-1.843-0.801-1.849-1.906C5.13,13.16,5.127,10.059,5.145,6.957
		c0.008-1.128,0.787-1.889,1.92-1.895c3.18-0.014,6.359-0.015,9.537,0.001c1.158,0.006,1.889,0.795,1.893,1.968
		C18.496,8.544,18.494,10.056,18.494,11.568z"/>
	<path fill="#71B8E6" d="M11.74,0C5.256,0,0,5.257,0,11.74c0,6.484,5.256,11.74,11.74,11.74s11.74-5.256,11.74-11.74
		C23.48,5.257,18.225,0,11.74,0z M11.74,22.597c-5.986,0-10.856-4.871-10.856-10.857c0-5.986,4.87-10.856,10.856-10.856
		s10.857,4.87,10.857,10.856C22.598,17.726,17.727,22.597,11.74,22.597z"/>
	<path fill="#71B8E6" d="M16.334,5.896c-3.021-0.004-6.045-0.004-9.066,0C6.335,5.897,6.016,6.222,6.016,7.155
		c-0.002,2.964,0,5.93,0,8.893c0,0.986,0.287,1.275,1.285,1.279c1.51,0.006,3.021,0,4.533,0c1.491,0,2.982,0.004,4.475,0
		c1.049-0.002,1.361-0.313,1.361-1.338c0-2.926,0.002-5.851,0-8.776C17.67,6.235,17.331,5.896,16.334,5.896z M6.669,8.241
		c0.301,0.224,0.603,0.446,0.96,0.711C8.007,8.311,8.37,7.663,8.768,7.037c0.092-0.146,0.297-0.222,0.448-0.328
		C9.215,6.897,9.281,7.123,9.203,7.271C8.83,7.971,8.412,8.646,8.023,9.337C7.861,9.628,7.678,9.673,7.425,9.459
		c-0.253-0.212-0.526-0.404-0.752-0.64C6.564,8.71,6.541,8.519,6.48,8.365C6.543,8.323,6.605,8.283,6.669,8.241z M6.984,11.708
		c0.211,0.127,0.391,0.305,0.64,0.508c0.399-0.68,0.742-1.304,1.125-1.903c0.099-0.155,0.324-0.231,0.491-0.344
		c-0.012,0.192,0.035,0.416-0.051,0.571c-0.361,0.679-0.775,1.332-1.144,2.007c-0.196,0.359-0.394,0.367-0.674,0.113
		c-0.228-0.209-0.492-0.381-0.701-0.605c-0.094-0.1-0.09-0.289-0.132-0.439C6.689,11.644,6.863,11.634,6.984,11.708z M9.252,13.611
		c-0.4,0.746-0.834,1.473-1.266,2.201c-0.046,0.076-0.133,0.152-0.214,0.178c-0.346,0.094-1.262-0.883-1.168-1.389
		c0.373,0.277,0.673,0.504,1.021,0.764c0.396-0.668,0.783-1.34,1.195-1.998c0.074-0.119,0.246-0.178,0.373-0.264
		C9.217,13.275,9.317,13.486,9.252,13.611z M16.217,15.308c-0.891-0.004-1.781,0-2.674,0c-0.891,0-1.781-0.006-2.671,0
		c-0.378,0.002-0.644-0.105-0.657-0.543c-0.014-0.463,0.26-0.615,0.659-0.617c1.782-0.004,3.563-0.004,5.345,0
		c0.404,0,0.665,0.152,0.65,0.617C16.855,15.207,16.594,15.31,16.217,15.308z M16.229,12.15c-0.91-0.008-1.82-0.004-2.73-0.004
		c-0.871,0.002-1.742-0.006-2.615,0.004c-0.416,0.006-0.673-0.133-0.666-0.592c0.006-0.43,0.26-0.569,0.643-0.569
		c1.802,0,3.604-0.001,5.404,0c0.398,0,0.611,0.183,0.605,0.602C16.861,12.023,16.62,12.152,16.229,12.15z M16.218,8.775
		c-0.891-0.009-1.78-0.003-2.673-0.003c-0.891,0-1.781-0.006-2.672,0.003c-0.385,0.004-0.643-0.105-0.658-0.541
		c-0.014-0.457,0.246-0.618,0.656-0.618c1.781-0.002,3.564-0.001,5.346-0.001c0.41,0,0.666,0.156,0.652,0.617
		C16.855,8.671,16.604,8.779,16.218,8.775z"/>
</g>
</svg>
