<?xml version="1.0" encoding="utf-8"?>
<!-- Generator: Adobe Illustrator 16.0.0, SVG Export Plug-In . SVG Version: 6.00 Build 0)  -->
<!DOCTYPE svg PUBLIC "-//W3C//DTD SVG 1.1//EN" "http://www.w3.org/Graphics/SVG/1.1/DTD/svg11.dtd">
<svg version="1.1" id="Layer_1" xmlns="http://www.w3.org/2000/svg" xmlns:xlink="http://www.w3.org/1999/xlink" x="0px" y="0px"
	 width="23.545px" height="23.543px" viewBox="0 0 23.545 23.543" enable-background="new 0 0 23.545 23.543" xml:space="preserve">
<g>
	<g>
		<path fill="#FFFFFF" d="M11.772,2.412c-5.161,0-9.36,4.199-9.36,9.359c0,5.161,4.199,9.36,9.36,9.36
			c5.162,0,9.361-4.199,9.361-9.36C21.133,6.611,16.934,2.412,11.772,2.412 M11.772,23.543C5.281,23.543,0,18.262,0,11.771
			C0,5.281,5.281,0,11.772,0c6.492,0,11.773,5.281,11.773,11.771C23.545,18.262,18.264,23.543,11.772,23.543"/>
	</g>
	<g>
		<path fill="#FFFFFF" d="M17,10.023c-0.991,0.003-1.982,0.001-2.973,0h-0.366c0.065-0.319,0.106-0.593,0.177-0.856
			c0.254-0.947,0.157-1.851-0.297-2.719c-0.145-0.279-0.373-0.307-0.644-0.269c-0.278,0.04-0.343,0.213-0.307,0.456
			c0.141,0.971-0.154,1.818-0.722,2.593c-0.113,0.153-0.205,0.322-0.313,0.481c-0.327,0.483-0.637,0.98-1.171,1.283
			c-0.083,0.047-0.145,0.203-0.148,0.311c-0.015,0.543-0.006,1.087-0.006,1.63v1.799c0.223,0.059,0.439,0.068,0.599,0.168
			c0.322,0.201,0.653,0.281,1.028,0.26c0.329-0.02,0.66-0.002,0.99-0.002c0.969,0,1.939,0.004,2.909,0
			c0.645-0.004,1.008-0.598,0.697-1.143c-0.094-0.164-0.01-0.213,0.115-0.289c0.388-0.236,0.529-0.625,0.309-0.902
			c-0.177-0.225-0.102-0.305,0.1-0.432c0.389-0.247,0.439-0.556,0.2-0.954c-0.03-0.052-0.056-0.107-0.091-0.177
			c0.075-0.048,0.135-0.089,0.196-0.125c0.315-0.187,0.448-0.467,0.358-0.772C17.543,10.034,17.277,10.022,17,10.023z"/>
		<path fill="#FFFFFF" d="M8.939,14.452c-0.192-0.033-0.317,0.1-0.317,0.303c-0.001,0.219,0.136,0.355,0.336,0.324
			c0.131-0.021,0.241-0.166,0.36-0.256c-0.001-0.051-0.001-0.1-0.002-0.15C9.191,14.596,9.073,14.473,8.939,14.452z"/>
		<path fill="#FFFFFF" d="M11.772,4.444c-4.047,0-7.327,3.28-7.327,7.327c0,4.047,3.28,7.327,7.327,7.327
			c4.046,0,7.327-3.279,7.327-7.327C19.1,7.725,15.818,4.444,11.772,4.444z M17.77,11.932c0.045,0.175-0.164,0.414-0.248,0.627
			c-0.043,0.105-0.108,0.227-0.092,0.328c0.057,0.361-0.027,0.67-0.24,0.959c-0.063,0.086-0.127,0.213-0.11,0.305
			c0.151,0.805-0.56,1.508-1.38,1.49c-1.254-0.027-2.51-0.006-3.765-0.008c-0.45,0-0.918,0.082-1.221-0.242
			c-0.131,0.215-0.248,0.406-0.364,0.598H6.831c-0.25-0.113-0.352-0.316-0.363-0.584c-0.01-0.256-0.033-0.51-0.052-0.764
			c-0.095-1.262-0.199-2.522-0.284-3.786c-0.028-0.408,0.132-0.556,0.542-0.557c0.863-0.001,1.726,0.024,2.586-0.008
			c0.439-0.017,0.947,0.211,1.304-0.084c0.349-0.288,0.57-0.732,0.842-1.111c0.511-0.711,0.823-1.479,0.676-2.379
			c-0.013-0.083,0.008-0.171-0.005-0.255c-0.048-0.319,0.144-0.491,0.385-0.63c0.1-0.058,0.211-0.093,0.317-0.14h0.512
			c0.172,0.096,0.415,0.147,0.505,0.294c0.429,0.702,0.791,1.44,0.666,2.307c-0.06,0.407-0.142,0.81-0.22,1.248
			c0.892,0,1.765,0.026,2.635-0.01c0.621-0.026,1.047,0.183,1.273,0.766v0.448C17.966,11.119,17.637,11.426,17.77,11.932z"/>
	</g>
</g>
</svg>
