<?xml version="1.0" encoding="utf-8"?>
<!-- Generator: Adobe Illustrator 16.0.0, SVG Export Plug-In . SVG Version: 6.00 Build 0)  -->
<!DOCTYPE svg PUBLIC "-//W3C//DTD SVG 1.1//EN" "http://www.w3.org/Graphics/SVG/1.1/DTD/svg11.dtd">
<svg version="1.1" id="Layer_1" xmlns="http://www.w3.org/2000/svg" xmlns:xlink="http://www.w3.org/1999/xlink" x="0px" y="0px"
	 width="12.867px" height="7.698px" viewBox="0 0 12.867 7.698" enable-background="new 0 0 12.867 7.698" xml:space="preserve">
<g>
	<path fill="#72B9E6" d="M9.98,3.082c0.234,0.002,0.404-0.169,0.408-0.41c0.006-0.238-0.166-0.422-0.395-0.425
		C9.769,2.246,9.584,2.428,9.58,2.659C9.576,2.892,9.754,3.078,9.98,3.082 M10.389,1.384c-0.002-0.233-0.185-0.421-0.407-0.419
		C9.758,0.967,9.578,1.159,9.58,1.389C9.582,1.624,9.764,1.81,9.987,1.808C10.213,1.806,10.389,1.619,10.389,1.384 M9.363,2.443
		c0.225,0.002,0.409-0.187,0.409-0.417c0-0.229-0.183-0.419-0.407-0.419c-0.223,0-0.408,0.189-0.408,0.417
		C8.957,2.255,9.139,2.443,9.363,2.443 M10.61,1.607c-0.224-0.001-0.406,0.186-0.407,0.416c-0.002,0.235,0.174,0.423,0.399,0.425
		c0.228,0.001,0.403-0.18,0.407-0.416C11.012,1.798,10.834,1.608,10.61,1.607 M6.506,1.576c-0.191,0-0.384,0-0.574-0.001
		c-0.139,0-0.197,0.085-0.174,0.207c0.03,0.167-0.133,0.447,0.141,0.48c0.395,0.047,0.798,0.017,1.197,0.009
		C7.254,2.268,7.254,2.129,7.24,2.019c-0.02-0.151,0.094-0.351-0.127-0.44C7.084,1.567,7.049,1.576,7.016,1.576
		C6.846,1.576,6.676,1.576,6.506,1.576 M6.491,3.338c0.104,0,0.209,0,0.313,0c0.468,0.006,0.438,0.031,0.439-0.483
		C7.245,2.7,7.18,2.627,7.026,2.63C6.758,2.634,6.489,2.632,6.221,2.631C5.723,2.629,5.744,2.568,5.754,3.148
		C5.756,3.287,5.822,3.34,5.949,3.338C6.131,3.336,6.312,3.338,6.491,3.338 M8.957,4.572c0.336,0.012,0.622-0.258,0.635-0.596
		C9.604,3.625,9.35,3.342,9.014,3.332c-0.353-0.01-0.625,0.252-0.631,0.609C8.377,4.287,8.627,4.561,8.957,4.572 M3.881,3.332
		c-0.34,0.002-0.606,0.275-0.605,0.625c0.001,0.346,0.273,0.621,0.609,0.617C4.227,4.566,4.497,4.279,4.491,3.93
		C4.486,3.594,4.215,3.33,3.881,3.332 M2.582,2.633c0,0.127,0,0.229,0,0.329C2.579,3.459,2.537,3.441,3.063,3.436
		c0.202-0.002,0.241-0.043,0.241-0.248c0.002-0.183,0.002-0.366,0.002-0.554c0.123,0,0.216,0.001,0.309,0
		c0.49-0.003,0.467,0.065,0.467-0.487c0-0.224-0.037-0.258-0.264-0.258H3.307c0-0.216-0.004-0.401,0-0.587
		c0.002-0.139-0.051-0.213-0.194-0.207C3.014,1.098,2.916,1.095,2.816,1.095C2.611,1.096,2.58,1.128,2.579,1.341
		c-0.001,0.178,0,0.356,0,0.547c-0.207,0-0.388,0.001-0.567,0C1.879,1.887,1.805,1.943,1.809,2.089c0.005,0.118,0.003,0.237,0,0.356
		C1.807,2.582,1.871,2.638,2.002,2.634C2.188,2.63,2.372,2.633,2.582,2.633 M9.051,5.346C8.445,5.309,8,5.025,7.705,4.496
		c-0.05-0.092-0.1-0.129-0.201-0.127c-0.713,0.004-1.426,0.004-2.139,0c-0.102-0.002-0.15,0.037-0.202,0.127
		C4.852,5.045,4.385,5.34,3.76,5.332C3.625,5.33,3.57,5.379,3.522,5.498c-0.146,0.365-0.298,0.727-0.46,1.084
		C2.807,7.141,2.42,7.555,1.807,7.672c-1.071,0.203-2.02-0.793-1.766-1.883C0.283,4.75,0.579,3.723,0.853,2.69
		c0.127-0.478,0.255-0.956,0.385-1.433c0.295-1.083,1.332-1.564,2.308-1.051c0.227,0.119,0.444,0.159,0.688,0.158
		c1.479-0.004,2.96-0.004,4.44,0.001c0.223,0,0.422-0.036,0.625-0.146c0.748-0.399,1.558-0.237,2.035,0.412
		c0.127,0.17,0.223,0.379,0.279,0.586c0.402,1.463,0.795,2.929,1.186,4.396c0.271,1.023-0.276,1.807-1.324,2.023
		c-0.75,0.154-1.313-0.352-1.592-0.904C9.691,6.354,9.53,5.957,9.37,5.563C9.305,5.398,9.237,5.277,9.051,5.346"/>
</g>
</svg>
