<?xml version="1.0" encoding="utf-8"?>
<!-- Generator: Adobe Illustrator 16.0.0, SVG Export Plug-In . SVG Version: 6.00 Build 0)  -->
<!DOCTYPE svg PUBLIC "-//W3C//DTD SVG 1.1//EN" "http://www.w3.org/Graphics/SVG/1.1/DTD/svg11.dtd">
<svg version="1.1" id="Layer_1" xmlns="http://www.w3.org/2000/svg" xmlns:xlink="http://www.w3.org/1999/xlink" x="0px" y="0px"
	 width="13.042px" height="9.05px" viewBox="0 0 13.042 9.05" enable-background="new 0 0 13.042 9.05" xml:space="preserve">
<g>
	<g>
		<path fill="#72B9E6" d="M8.725,3.501c-0.459,0-0.828,0.366-0.834,0.829c-0.006,0.459,0.373,0.844,0.83,0.846
			c0.449,0,0.832-0.375,0.832-0.818C9.555,3.874,9.195,3.502,8.725,3.501 M6.399,2.524c-0.29,0-0.559-0.005-0.831,0.002
			c-0.101,0.003-0.137-0.029-0.146-0.13C5.387,1.959,5.512,1.563,5.713,1.186c0.012-0.022,0.044-0.033,0.067-0.05
			C5.796,1.16,5.818,1.181,5.827,1.207c0.04,0.123,0.07,0.249,0.118,0.368c0.018,0.043,0.076,0.069,0.116,0.103
			C6.095,1.634,6.151,1.595,6.16,1.546c0.082-0.463,0.334-0.824,0.661-1.141c0.02-0.019,0.052-0.022,0.078-0.033
			c0.01,0.03,0.029,0.059,0.029,0.088c0,0.13-0.013,0.259-0.004,0.387c0.004,0.044,0.051,0.113,0.088,0.12s0.104-0.038,0.125-0.079
			C7.354,0.477,7.7,0.211,8.102,0.011C8.131-0.003,8.17,0.003,8.205,0C8.204,0.032,8.208,0.067,8.199,0.097
			C8.162,0.212,8.112,0.324,8.084,0.442C8.074,0.491,8.106,0.55,8.118,0.605C8.169,0.59,8.239,0.593,8.272,0.56
			c0.336-0.328,0.75-0.468,1.197-0.533c0.026-0.004,0.055,0.012,0.084,0.018c-0.009,0.03-0.011,0.065-0.027,0.09
			C9.455,0.236,9.372,0.331,9.307,0.438C9.283,0.479,9.295,0.545,9.291,0.601c0.056,0.002,0.121,0.024,0.165,0.003
			c0.412-0.201,0.84-0.218,1.279-0.133c0.033,0.007,0.062,0.031,0.093,0.049c-0.022,0.026-0.042,0.059-0.069,0.079
			c-0.094,0.07-0.195,0.131-0.283,0.207c-0.037,0.034-0.047,0.099-0.07,0.149c0.051,0.021,0.105,0.066,0.152,0.059
			c0.449-0.064,0.857,0.059,1.25,0.263c0.033,0.018,0.059,0.053,0.088,0.08c-0.037,0.021-0.069,0.05-0.107,0.063
			c-0.113,0.041-0.23,0.07-0.341,0.118c-0.038,0.016-0.083,0.078-0.079,0.114c0.003,0.036,0.061,0.087,0.102,0.094
			c0.455,0.076,0.813,0.323,1.127,0.648c0.025,0.025,0.034,0.068,0.051,0.104c-0.039,0.009-0.075,0.024-0.113,0.024
			c-0.121,0.003-0.241-0.008-0.361,0.003c-0.042,0.003-0.105,0.044-0.113,0.079c-0.01,0.034,0.029,0.104,0.065,0.123
			c0.404,0.214,0.673,0.553,0.871,0.957c0.019,0.036,0.017,0.083,0.024,0.125c-0.041-0.006-0.084-0.005-0.125-0.016
			c-0.11-0.034-0.219-0.081-0.332-0.104c-0.043-0.01-0.114,0.015-0.139,0.049c-0.019,0.023,0.004,0.104,0.033,0.135
			c0.318,0.331,0.464,0.74,0.53,1.185c0.006,0.037-0.009,0.078-0.013,0.117c-0.039-0.018-0.08-0.027-0.114-0.051
			c-0.097-0.066-0.185-0.145-0.284-0.205c-0.039-0.023-0.113-0.025-0.148-0.002c-0.024,0.016-0.033,0.102-0.015,0.139
			c0.205,0.422,0.224,0.861,0.142,1.313c-0.006,0.033-0.033,0.063-0.052,0.092c-0.026-0.021-0.058-0.041-0.079-0.07
			c-0.074-0.1-0.14-0.207-0.22-0.301c-0.026-0.033-0.099-0.059-0.131-0.045c-0.033,0.014-0.058,0.082-0.06,0.127
			c-0.002,0.111,0.01,0.225,0.017,0.354h-0.162c-1.783,0-3.567-0.002-5.351,0.002c-0.104,0-0.121-0.037-0.121-0.131
			c0.002-1.23,0.002-2.458,0.002-3.686V2.524z"/>
	</g>
	<rect x="0.009" y="6.876" fill="#72B9E6" width="13.033" height="2.174"/>
	<g>
		<path fill="#72B9E6" d="M0.011,2.777c0.303,0,0.603-0.002,0.903,0.002C0.951,2.78,0.99,2.81,1.025,2.83
			c0.399,0.252,0.79,0.517,1.196,0.754C2.47,3.73,2.733,3.86,3.003,3.959C3.515,4.146,4.036,4.31,4.555,4.478
			c0.332,0.107,0.674,0.146,1.024,0.133C5.74,4.605,5.902,4.603,6.064,4.609c0.029,0.002,0.08,0.049,0.08,0.074
			c0.004,0.578,0.002,1.156,0,1.734c0,0.008-0.006,0.014-0.012,0.027H5.788C5.759,6.22,5.588,6.089,5.43,5.949
			C5.114,5.673,4.804,5.384,4.408,5.23C4.202,5.148,3.981,5.107,3.774,5.029c-0.316-0.121-0.627-0.256-0.94-0.387
			C2.192,4.375,1.553,4.1,0.905,3.846C0.698,3.764,0.467,3.744,0.249,3.688C-0.003,3.623-0.001,3.618,0,3.354
			c0.001-0.179,0.001-0.357,0.002-0.536C0.002,2.812,0.005,2.804,0.011,2.777"/>
		<path fill="#72B9E6" d="M3.573,6.447c0.079-0.262,0.06-0.313-0.164-0.473C3.391,5.96,3.372,5.949,3.356,5.931
			C2.889,5.404,2.273,5.175,1.609,5.035c-0.479-0.1-0.965-0.092-1.45-0.104C0,4.925,0,4.927,0,4.771C0,4.486,0.001,4.2,0.001,3.914
			V3.8c0.522,0.122,1.036,0.227,1.514,0.467c0.352,0.176,0.726,0.309,1.09,0.463C2.73,4.783,2.852,4.843,2.979,4.892
			c0.323,0.123,0.642,0.26,0.973,0.355c0.376,0.109,0.717,0.271,1.015,0.525c0.173,0.146,0.346,0.295,0.512,0.449
			c0.059,0.055,0.097,0.133,0.161,0.225H3.573z"/>
		<path fill="#72B9E6" d="M1.317,2.774h0.594c0.271,0,0.542-0.004,0.813,0.003c0.066,0.002,0.138,0.028,0.194,0.065
			C3.146,2.99,3.364,3.154,3.595,3.296c0.239,0.146,0.508,0.213,0.785,0.229c0.386,0.022,0.773,0.041,1.161,0.047
			c0.198,0.003,0.396-0.025,0.601-0.039v0.908c-0.074,0-0.148-0.006-0.221,0C5.27,4.498,4.651,4.371,4.046,4.129
			C3.726,4.001,3.389,3.915,3.06,3.808C2.78,3.716,2.517,3.589,2.271,3.422C1.957,3.207,1.635,3.004,1.315,2.796
			C1.316,2.789,1.316,2.781,1.317,2.774"/>
		<path fill="#72B9E6" d="M2.149,6.447c0.15-0.293,0.081-0.496-0.217-0.641C1.566,5.632,1.176,5.562,0.774,5.542
			C0.521,5.531,0.266,5.517,0.006,5.503V5.111c0.283,0,0.561-0.01,0.837,0.002C1.524,5.146,2.181,5.279,2.768,5.65
			c0.145,0.09,0.269,0.215,0.402,0.326c0.057,0.049,0.11,0.102,0.168,0.15C3.392,6.169,3.47,6.195,3.446,6.291
			C3.422,6.384,3.333,6.453,3.23,6.453c-0.331,0-0.662,0-0.993,0C2.208,6.453,2.181,6.449,2.149,6.447"/>
		<path fill="#72B9E6" d="M3.166,2.778h2.981c0,0.177,0.005,0.349-0.006,0.521C6.139,3.325,6.068,3.361,6.026,3.365
			C5.84,3.385,5.652,3.41,5.465,3.405C5.071,3.395,4.677,3.376,4.284,3.343C3.843,3.307,3.492,3.067,3.166,2.778"/>
		<path fill="#72B9E6" d="M0.008,6.453V5.669c0.176,0.012,0.343,0.027,0.51,0.033c0.357,0.014,0.714,0.025,1.057,0.143
			C1.684,5.882,1.793,5.927,1.896,5.98c0.055,0.027,0.105,0.076,0.14,0.127c0.066,0.096,0.044,0.191-0.064,0.23
			C1.829,6.388,1.678,6.445,1.53,6.449C1.064,6.462,0.599,6.453,0.133,6.453H0.008z"/>
		<path fill="#72B9E6" d="M4.242,0.91C4.323,1.242,4.4,1.556,4.478,1.868C4.468,1.872,4.459,1.876,4.45,1.88
			C4.284,1.606,4.12,1.332,3.948,1.05C4.045,1.003,4.133,0.963,4.242,0.91"/>
		<path fill="#72B9E6" d="M4.334,2.281C4.129,2.203,3.926,2.126,3.707,2.043C3.744,1.97,3.775,1.907,3.813,1.832
			c0.184,0.146,0.359,0.285,0.534,0.425C4.344,2.266,4.338,2.273,4.334,2.281"/>
		<path fill="#72B9E6" d="M3.075,2.359c0.008-0.062,0.016-0.115,0.026-0.187C3.284,2.23,3.457,2.284,3.629,2.338
			C3.628,2.345,3.627,2.353,3.625,2.359H3.075z"/>
		<path fill="#72B9E6" d="M4.862,2.515C4.876,2.424,4.884,2.345,4.9,2.27C4.915,2.197,4.957,2.19,4.998,2.248
			C5.057,2.33,5.109,2.416,5.172,2.515H4.862z"/>
	</g>
</g>
</svg>
