<?xml version="1.0" encoding="utf-8"?>
<!-- Generator: Adobe Illustrator 16.0.0, SVG Export Plug-In . SVG Version: 6.00 Build 0)  -->
<!DOCTYPE svg PUBLIC "-//W3C//DTD SVG 1.1//EN" "http://www.w3.org/Graphics/SVG/1.1/DTD/svg11.dtd">
<svg version="1.1" id="Layer_1" xmlns="http://www.w3.org/2000/svg" xmlns:xlink="http://www.w3.org/1999/xlink" x="0px" y="0px"
	 width="23.479px" height="23.481px" viewBox="0 0 23.479 23.481" enable-background="new 0 0 23.479 23.481" xml:space="preserve">
<g>
	<path fill="#71B8E6" d="M17.083,14.702c-0.035-0.029-0.043-0.057-0.043-0.096c0.002-0.473,0.002-0.947,0.002-1.422
		c0-0.023-0.002-0.051-0.008-0.076c-0.041-0.152-0.18-0.256-0.322-0.238l0,0c-0.001,0-0.001,0-0.001,0
		c-0.061,0.007-0.104,0.042-0.147,0.075c-0.017,0.012-0.041,0.013-0.055,0.027c-0.002,0.003-0.001,0.007-0.003,0.01
		c-0.046,0.055-0.075,0.124-0.075,0.204c0,0.001,0,0.001,0,0.002l0,0c0,0.461-0.002,0.922,0.002,1.383l-0.158,0.208
		c-0.087,0.036-0.195,0.05-0.297,0.05c-0.215,0-0.433,0.002-0.648,0.002c-0.15,0-0.301-0.002-0.452,0
		c-0.108,0.002-0.194,0.053-0.252,0.146c-0.035,0.056-0.044,0.116-0.041,0.175c0.007,0.122,0.089,0.225,0.211,0.264
		c0.027,0.009,0.053,0.023,0.084,0.024l0.89,0.002c0.148-0.002,0.297-0.002,0.444,0.002c0.03,0,0.065,0.018,0.086,0.041
		c0.156,0.176,0.347,0.25,0.576,0.191l0,0h0.001c0.177-0.044,0.289-0.163,0.356-0.323c0.013-0.03,0.038-0.051,0.046-0.085l0,0
		c0-0.001,0.001-0.001,0.001-0.002C17.335,15.04,17.261,14.848,17.083,14.702z"/>
	<path fill="#71B8E6" d="M11.74,1.884c-5.435,0-9.857,4.421-9.857,9.856c0,5.434,4.422,9.858,9.857,9.858
		c5.435,0,9.856-4.424,9.856-9.858C21.597,6.305,17.175,1.884,11.74,1.884z M9.157,5.423h2.617V6.26H9.157V5.423z M7.295,15.383
		H5.353c-0.434,0-0.767-0.275-0.845-0.701c-0.011-0.061-0.01-0.123-0.011-0.184c0-0.904,0.001-1.809,0.001-2.712
		c0-0.502,0-1.004,0-1.505v-0.079h2.546V9.949c0-0.095-0.004-0.189,0.001-0.282c0.003-0.063-0.017-0.08-0.079-0.08
		c-0.78,0.003-1.56,0.002-2.339,0.002H4.498c0-0.036,0-0.071,0.001-0.104c0-0.602-0.004-1.202,0.003-1.803
		C4.506,7.24,4.878,6.875,5.34,6.876c0.572,0.002,1.145,0.001,1.717,0.001l0.156,0.004l8.485-0.01
		c0.099,0.035,0.197,0.055,0.281,0.1c0.291,0.158,0.447,0.405,0.449,0.738c0.004,0.598,0.001,1.197,0.001,1.795v0.08h-2.538v-0.16
		c0-0.217-0.005-0.434,0.002-0.65c0.006-0.172-0.125-0.32-0.301-0.324c-0.174-0.003-0.311,0.136-0.313,0.322
		c-0.002,0.194,0,0.387,0,0.58c0,0.552,0,1.103,0,1.653c0,0.203,0.132,0.341,0.317,0.338c0.15-0.002,0.286-0.123,0.29-0.272
		c0.008-0.257,0.004-0.514,0.004-0.77v-0.099h2.534v1.556c-0.912,0.098-1.677,0.487-2.272,1.186s-0.854,1.518-0.799,2.436
		L7.295,15.383z M18.868,16.924c-0.371,0.441-0.835,0.742-1.391,0.893c-0.583,0.158-1.164,0.145-1.725-0.08
		c-0.963-0.385-1.564-1.092-1.75-2.115c-0.166-0.924,0.092-1.74,0.738-2.42c0.432-0.455,0.967-0.727,1.588-0.814
		c0.65-0.094,1.264,0.018,1.825,0.357c0.71,0.428,1.151,1.053,1.313,1.867c0.025,0.129,0.029,0.262,0.047,0.393
		c0.007,0.51-0.094,0.861-0.094,0.861C19.318,16.254,19.132,16.612,18.868,16.924z"/>
	<path fill="#71B8E6" d="M11.74,0C5.256,0,0,5.257,0,11.74c0,6.485,5.256,11.741,11.74,11.741c6.483,0,11.739-5.256,11.739-11.741
		C23.479,5.257,18.224,0,11.74,0z M11.74,22.598c-5.986,0-10.857-4.871-10.857-10.858c0-5.986,4.871-10.856,10.857-10.856
		c5.985,0,10.856,4.87,10.856,10.856C22.597,17.727,17.726,22.598,11.74,22.598z"/>
	<path fill="#71B8E6" d="M8.081,8.765c0-0.094-0.033-0.173-0.089-0.229C7.937,8.48,7.858,8.449,7.766,8.45
		C7.6,8.452,7.47,8.593,7.47,8.772v2.126v0.084c0,0.169,0.1,0.286,0.102,0.289l0,0.001c0.012,0.007,0.022,0.011,0.032,0.017
		c0.042,0.025,0.083,0.032,0.125,0.04c0.015,0.002,0.029,0.013,0.044,0.014c0.029,0.001,0.054-0.012,0.081-0.019
		c0.023-0.006,0.05-0.005,0.071-0.017c0.09-0.05,0.153-0.15,0.156-0.283c0.003-0.152,0.001-0.306,0.001-0.46v-0.365h4.767v-0.001
		V9.59H8.082C8.082,9.307,8.083,9.037,8.081,8.765z"/>
</g>
</svg>
